<?xml version="1.0" standalone="no"?>
<!DOCTYPE svg PUBLIC "-//W3C//DTD SVG 20010904//EN"
 "http://www.w3.org/TR/2001/REC-SVG-20010904/DTD/svg10.dtd">
<svg version="1.0" xmlns="http://www.w3.org/2000/svg"
 width="1600.000000pt" height="1600.000000pt" viewBox="0 0 1600.000000 1600.000000"
 preserveAspectRatio="xMidYMid meet">
<metadata>
Created by potrace 1.11, written by Peter Selinger 2001-2013
</metadata>
<g transform="translate(0.000000,1600.000000) scale(0.100000,-0.100000)"
fill="#000000" stroke="none">
<path d="M0 8000 l0 -8000 8000 0 8000 0 0 8000 0 8000 -8000 0 -8000 0 0
-8000z m10440 2892 c344 -92 630 -378 722 -724 l22 -83 3 -1782 3 -1783 -1000
0 -1000 0 -2 1458 -3 1457 -30 59 c-37 74 -117 154 -191 191 l-59 30 -657 3
-658 3 0 -1601 0 -1600 -1000 0 -1000 0 0 1600 0 1600 -800 0 -800 0 0 -1600
0 -1600 -1000 0 -1000 0 0 2200 0 2200 4183 -3 4182 -2 85 -23z m3547 -2554
l-2 -2583 -23 -83 c-92 -343 -371 -627 -710 -720 l-97 -27 -1782 -3 -1783 -2
0 600 0 600 1058 2 1057 3 57 28 c72 36 155 119 193 193 l30 59 3 2258 2 2257
1000 0 1000 0 -3 -2582z"/>
</g>
</svg>
